<?xml version="1.0" encoding="utf-8"?>
<!-- Generator: Adobe Illustrator 16.0.0, SVG Export Plug-In . SVG Version: 6.00 Build 0)  -->
<!DOCTYPE svg PUBLIC "-//W3C//DTD SVG 1.1//EN" "http://www.w3.org/Graphics/SVG/1.1/DTD/svg11.dtd">
<svg version="1.1" id="Layer_1" xmlns="http://www.w3.org/2000/svg" xmlns:xlink="http://www.w3.org/1999/xlink" x="0px" y="0px"
	 width="800px" height="800px" viewBox="0 0 800 800" enable-background="new 0 0 800 800" xml:space="preserve">
<linearGradient id="SVGID_1_" gradientUnits="userSpaceOnUse" x1="385.2778" y1="87.3906" x2="385.2778" y2="120.2666" gradientTransform="matrix(0.9977 -0.0676 0.0676 0.9977 1.8604 33.106)">
	<stop  offset="0" style="stop-color:#F8A17E"/>
	<stop  offset="0.4857" style="stop-color:#F2643C"/>
</linearGradient>
<line fill="none" stroke="url(#SVGID_1_)" stroke-width="16" stroke-linecap="round" stroke-miterlimit="10" x1="402.05" y1="118.514" x2="384.493" y2="102.789"/>
<linearGradient id="SVGID_2_" gradientUnits="userSpaceOnUse" x1="497.5244" y1="213.9048" x2="465.0693" y2="213.9048" gradientTransform="matrix(0.9978 -0.0662 0.0662 0.9978 6.8125 27.2974)">
	<stop  offset="0" style="stop-color:#F8A17E"/>
	<stop  offset="0.4857" style="stop-color:#F2643C"/>
</linearGradient>
<line fill="none" stroke="url(#SVGID_2_)" stroke-width="16" stroke-linecap="round" stroke-miterlimit="10" x1="509.979" y1="216.744" x2="492.443" y2="200.995"/>
<linearGradient id="SVGID_3_" gradientUnits="userSpaceOnUse" x1="371.8799" y1="222.2954" x2="371.8799" y2="190.3257" gradientTransform="matrix(0.9953 -0.0971 0.0971 0.9953 8.7715 44.7197)">
	<stop  offset="0" style="stop-color:#F8A17E"/>
	<stop  offset="0.4857" style="stop-color:#F2643C"/>
</linearGradient>
<line fill="none" stroke="url(#SVGID_3_)" stroke-width="16" stroke-linecap="round" stroke-miterlimit="10" x1="391.085" y1="222.74" x2="406.788" y2="205.163"/>
<linearGradient id="SVGID_4_" gradientUnits="userSpaceOnUse" x1="479.8652" y1="94.9536" x2="479.8652" y2="126.9224" gradientTransform="matrix(0.9945 -0.1051 0.1051 0.9945 7.958 46.1709)">
	<stop  offset="0" style="stop-color:#F8A17E"/>
	<stop  offset="0.4857" style="stop-color:#F2643C"/>
</linearGradient>
<line fill="none" stroke="url(#SVGID_4_)" stroke-width="16" stroke-linecap="round" stroke-miterlimit="10" x1="489.063" y1="114.917" x2="504.624" y2="97.213"/>
<linearGradient id="SVGID_5_" gradientUnits="userSpaceOnUse" x1="433.8027" y1="67.9175" x2="433.8027" y2="107.4683" gradientTransform="matrix(0.9961 -0.0879 0.0879 0.9961 4.1572 38.8809)">
	<stop  offset="0" style="stop-color:#F8A17E"/>
	<stop  offset="0.4857" style="stop-color:#F2643C"/>
</linearGradient>
<line fill="none" stroke="url(#SVGID_5_)" stroke-width="16" stroke-linecap="round" stroke-miterlimit="10" x1="444.513" y1="99.874" x2="443.438" y2="76.327"/>
<linearGradient id="SVGID_6_" gradientUnits="userSpaceOnUse" x1="423.2861" y1="251.1021" x2="423.2861" y2="211.5522" gradientTransform="matrix(0.9962 -0.0871 0.0871 0.9962 9.3965 38.8501)">
	<stop  offset="0" style="stop-color:#F8A17E"/>
	<stop  offset="0.4857" style="stop-color:#F2643C"/>
</linearGradient>
<line fill="none" stroke="url(#SVGID_6_)" stroke-width="16" stroke-linecap="round" stroke-miterlimit="10" x1="451.75" y1="244.202" x2="450.693" y2="220.655"/>
<linearGradient id="SVGID_7_" gradientUnits="userSpaceOnUse" x1="341.1045" y1="154.2495" x2="380.6729" y2="154.2495" gradientTransform="matrix(0.9978 -0.0669 0.0669 0.9978 5.251 33.9648)">
	<stop  offset="0" style="stop-color:#F8A17E"/>
	<stop  offset="0.4857" style="stop-color:#F2643C"/>
</linearGradient>
<line fill="none" stroke="url(#SVGID_7_)" stroke-width="16" stroke-linecap="round" stroke-miterlimit="10" x1="363.896" y1="164.351" x2="387.435" y2="163.111"/>
<linearGradient id="SVGID_8_" gradientUnits="userSpaceOnUse" x1="513.9043" y1="163.02" x2="474.3916" y2="163.02" gradientTransform="matrix(0.9927 -0.1207 0.1207 0.9927 9.5557 54.5322)">
	<stop  offset="0" style="stop-color:#F8A17E"/>
	<stop  offset="0.4857" style="stop-color:#F2643C"/>
</linearGradient>
<line fill="none" stroke="url(#SVGID_8_)" stroke-width="16" stroke-linecap="round" stroke-miterlimit="10" x1="508.002" y1="157.305" x2="531.545" y2="156.131"/>
<circle fill="none" stroke="#F2643C" stroke-width="20" stroke-miterlimit="10" cx="400" cy="352" r="280"/>
<linearGradient id="SVGID_9_" gradientUnits="userSpaceOnUse" x1="438.3955" y1="294.3989" x2="157.0454" y2="294.3989">
	<stop  offset="0" style="stop-color:#F8A17E"/>
	<stop  offset="0.4857" style="stop-color:#F2643C"/>
</linearGradient>
<path fill="url(#SVGID_9_)" d="M438.396,332.909c-5.857,9.001-38.193,63.447-44.488,72.741c-4.532,6.689-6.278,9.195-14.339,6.195
	c-16.573-6.171-33.96-13.451-50.316-20.573c-6.117-2.666-22.05-10.761-25.083-9.382c-2.034,0.924-3.728,3.324-4.69,5.517
	c-4.965,11.311-11.308,26.481-14.958,37.477c-1.428,4.302-4.079,12.322-9.568,12.991c-3.779,0.461-11.496-4.678-14.108-6.779
	c-4.636-3.735-78.081-48.643-94.977-59.529c-1.897-1.223-6.632-1.502-6.926-1.76l-1.895-4.185
	c38.543-61.444,106.333-169.688,119.214-191.869c17.453-30.058,48.172-30.934,68.145,0.111
	c9.902,15.388,48.541,82.044,90.996,153.66C436.433,329.266,438.396,332.909,438.396,332.909z"/>
<linearGradient id="SVGID_10_" gradientUnits="userSpaceOnUse" x1="446.2451" y1="432.123" x2="682.5" y2="432.123">
	<stop  offset="0" style="stop-color:#F8A17E"/>
	<stop  offset="0.4857" style="stop-color:#F2643C"/>
</linearGradient>
<path fill="url(#SVGID_10_)" d="M446.245,340.29L584.04,557.746c0,0,45.425-35.172,77.939-115.833
	C668.266,426.318,682.5,376,682.5,376c-7-4-20.5-8.5-29.049,0.829c-4.004,4.369-29.967,29.967-37.206,37.101
	c-6.824,6.725-23.282,24.775-30.021,18.076C581.188,427,560.913,402.76,554.5,394.5c-7.538-9.708-17.5-31.5-31.221-23.503
	c-5.915,3.447-8.114,11.44-13.279,9.503c-2.851-1.069-44.513-70.643-47-74L446.245,340.29z"/>
<circle fill="none" stroke="#F2643C" stroke-width="20" stroke-miterlimit="10" cx="447.5" cy="160" r="37.5"/>
<linearGradient id="SVGID_11_" gradientUnits="userSpaceOnUse" x1="449.3242" y1="388.2651" x2="152.3857" y2="388.2651">
	<stop  offset="0" style="stop-color:#F8A17E"/>
	<stop  offset="0.4857" style="stop-color:#F2643C"/>
</linearGradient>
<path fill="none" stroke="url(#SVGID_11_)" stroke-width="16" stroke-miterlimit="10" d="M157.667,370.667
	c2.999,2.635,96.118,59.455,101.435,63.739c2.692,2.168,10.651,7.468,14.549,6.992c5.661-0.689,8.395-8.961,9.867-13.398
	c3.764-11.34,10.307-26.986,15.428-38.65c0.993-2.261,2.739-4.737,4.836-5.69c3.129-1.422,19.562,6.928,25.872,9.676
	c16.867,7.346,34.798,14.853,51.893,21.217c8.312,3.095,10.113,0.51,14.787-6.389c6.883-10.16,43.943-72.647,46.667-76.164"/>
<linearGradient id="SVGID_12_" gradientUnits="userSpaceOnUse" x1="437.1592" y1="294.043" x2="677.4248" y2="294.043">
	<stop  offset="0" style="stop-color:#F8A17E"/>
	<stop  offset="0.4857" style="stop-color:#F2643C"/>
</linearGradient>
<path fill="none" stroke="url(#SVGID_12_)" stroke-width="16" stroke-miterlimit="10" d="M444.152,331.231
	c10-18,30.001-61.436,35.112-72.876c8.423-18.851,29.681-19.653,40.51,0c14.193,25.759,48.573,72.258,53.345,79.416
	c5.615,8.423,19.033,9.46,23.033-2.54c1-2.999,22.618-57.336,25.973-64.844c8.423-18.851,29.681-19.653,40.51,0
	c2.235,4.056,4.971,8.627,8.013,13.478"/>
<path fill="none" stroke="#F2643C" stroke-width="20" stroke-miterlimit="10" d="M125,410c10-16,132-210,150-241
	s49.681-31.904,70.28,0.114C367.784,204.093,567,551,586,558"/>
</svg>
